<svg width="987" height="116.1666666666667" viewBox="0 0 987 116.1666666666667" fill="none" xmlns="http://www.w3.org/2000/svg">
<g clip-path="url(#clip0_1_2)">
<path d="M-95.6423 55.4115V-55.4115L-7.62939e-05 -110.823L95.6422 -55.4115V55.4115L-7.62939e-05 110.823L-95.6423 55.4115Z" fill="#0E0E0E"/>
<path d="M-2.28882e-05 -110.3L95.2079 -55.1501V55.1501L-2.28882e-05 110.3L-95.2079 55.1501V-55.1501L-2.28882e-05 -110.3ZM-2.28882e-05 -111.259L-96.0766 -55.5857V55.6729L-2.28882e-05 111.259L96.0766 55.5858V-55.6729L-2.28882e-05 -111.259Z" fill="#161616"/>
<path d="M101.723 55.4115V-55.4115L197.365 -110.823L293.094 -55.4115V55.4115L197.365 110.823L101.723 55.4115Z" fill="#0E0E0E"/>
<path d="M197.365 -110.3L292.573 -55.1501V55.1501L197.365 110.3L102.157 55.1501V-55.1501L197.365 -110.3ZM197.365 -111.259L101.289 -55.6729V55.6729L197.365 111.346L293.442 55.6729V-55.6729L197.365 -111.259Z" fill="#161616"/>
<path d="M299.175 55.4115V-55.4115L394.817 -110.823L490.46 -55.4115V55.4115L394.817 110.823L299.175 55.4115Z" fill="#0E0E0E"/>
<path d="M394.817 -110.3L490.025 -55.1501V55.1501L394.817 110.3L299.609 55.1501V-55.1501L394.817 -110.3ZM394.817 -111.259L298.741 -55.6729V55.6729L394.817 111.346L490.894 55.6729V-55.6729L394.817 -111.259Z" fill="#161616"/>
<path d="M496.54 55.4115V-55.4115L592.183 -110.823L687.825 -55.4115V55.4115L592.183 110.823L496.54 55.4115Z" fill="#0E0E0E"/>
<path d="M592.183 -110.3L687.391 -55.1501V55.1501L592.183 110.3L496.975 55.1501V-55.1501L592.183 -110.3ZM592.183 -111.259L496.106 -55.6729V55.6729L592.183 111.346L688.259 55.6729V-55.6729L592.183 -111.259Z" fill="#161616"/>
<path d="M693.906 55.4115V-55.4115L789.548 -110.823L885.277 -55.4115V55.4115L789.548 110.823L693.906 55.4115Z" fill="#0E0E0E"/>
<path d="M789.548 -110.3L884.756 -55.1501V55.1501L789.548 110.3L694.34 55.1501V-55.1501L789.548 -110.3ZM789.548 -111.259L693.471 -55.6729V55.6729L789.548 111.346L885.624 55.6729V-55.6729L789.548 -111.259Z" fill="#161616"/>
<path d="M891.358 55.4115V-55.4115L987 -110.823L1082.64 -55.4115V55.4115L987 110.823L891.358 55.4115Z" fill="#0E0E0E"/>
</g>
<defs>
<clipPath id="clip0_1_2">
<rect width="987" height="116.1666666666667" fill="white"/>
</clipPath>
</defs>
</svg>
